<?xml version="1.0" standalone="no"?>
<!DOCTYPE svg PUBLIC "-//W3C//DTD SVG 20010904//EN"
 "http://www.w3.org/TR/2001/REC-SVG-20010904/DTD/svg10.dtd">
<svg version="1.0" xmlns="http://www.w3.org/2000/svg"
 width="256.000000pt" height="256.000000pt" viewBox="0 0 256.000000 256.000000"
 preserveAspectRatio="xMidYMid meet">

<g transform="translate(0.000000,256.000000) scale(0.100000,-0.100000)"
fill="#000000" stroke="none">
<path d="M600 2000 l0 -40 -40 0 c-33 0 -40 -3 -40 -20 0 -17 -7 -20 -40 -20
l-40 0 0 -40 0 -40 -40 0 -40 0 0 -360 c0 -353 0 -360 -20 -360 -17 0 -20 -7
-20 -40 l0 -40 -40 0 -40 0 0 -60 0 -60 -40 0 -40 0 0 -140 0 -140 -80 0 -80
0 0 -320 0 -320 1280 0 1280 0 0 320 0 320 -60 0 -60 0 0 460 0 460 -100 0
-100 0 0 -360 0 -360 -320 0 -320 0 0 -100 0 -100 -240 0 -240 0 0 140 0 140
60 0 60 0 0 -40 0 -40 60 0 60 0 0 100 0 100 -100 0 -100 0 0 40 0 40 280 0
280 0 0 80 0 80 -200 0 -200 0 0 40 0 40 320 0 320 0 0 240 0 240 -60 0 -60 0
0 40 0 40 -160 0 -160 0 0 40 0 40 -140 0 c-133 0 -140 1 -140 20 0 20 -7 20
-320 20 l-320 0 0 -40z m480 -240 l0 -40 -60 0 -60 0 0 -40 0 -40 -80 0 -80 0
0 40 0 40 80 0 80 0 0 40 0 40 60 0 60 0 0 -40z m-360 -140 c0 -13 -7 -20 -20
-20 -13 0 -20 7 -20 20 0 13 7 20 20 20 13 0 20 -7 20 -20z m-80 -80 c0 -13
-7 -20 -20 -20 -13 0 -20 7 -20 20 0 13 7 20 20 20 13 0 20 -7 20 -20z m1720
-300 l0 -280 -40 0 -40 0 0 280 0 280 40 0 40 0 0 -280z m-1600 -820 c0 -17 7
-20 40 -20 l40 0 0 -40 c0 -33 3 -40 20 -40 18 0 20 -7 20 -60 0 -53 -2 -60
-20 -60 -13 0 -20 -7 -20 -20 0 -13 -7 -20 -20 -20 -13 0 -20 -7 -20 -20 0
-18 -7 -20 -80 -20 -73 0 -80 2 -80 20 0 13 -7 20 -20 20 -13 0 -20 7 -20 20
0 13 -7 20 -20 20 -13 0 -20 7 -20 20 0 13 -7 20 -20 20 -17 0 -20 7 -20 40 0
33 3 40 20 40 17 0 20 7 20 40 l0 40 40 0 c33 0 40 3 40 20 0 18 7 20 60 20
53 0 60 -2 60 -20z m560 0 c0 -17 7 -20 40 -20 l40 0 0 -40 c0 -33 3 -40 20
-40 18 0 20 -7 20 -60 0 -53 -2 -60 -20 -60 -13 0 -20 -7 -20 -20 0 -13 -7
-20 -20 -20 -13 0 -20 -7 -20 -20 0 -18 -7 -20 -80 -20 -73 0 -80 2 -80 20 0
13 -7 20 -20 20 -13 0 -20 7 -20 20 0 13 -7 20 -20 20 -13 0 -20 7 -20 20 0
13 -7 20 -20 20 -17 0 -20 7 -20 40 0 33 3 40 20 40 17 0 20 7 20 40 l0 40 40
0 c33 0 40 3 40 20 0 18 7 20 60 20 53 0 60 -2 60 -20z m560 0 c0 -17 7 -20
40 -20 l40 0 0 -40 c0 -33 3 -40 20 -40 18 0 20 -7 20 -60 0 -53 -2 -60 -20
-60 -13 0 -20 -7 -20 -20 0 -13 -7 -20 -20 -20 -13 0 -20 -7 -20 -20 0 -18 -7
-20 -80 -20 -73 0 -80 2 -80 20 0 13 -7 20 -20 20 -13 0 -20 7 -20 20 0 13 -7
20 -20 20 -13 0 -20 7 -20 20 0 13 -7 20 -20 20 -17 0 -20 7 -20 40 0 33 3 40
20 40 17 0 20 7 20 40 l0 40 40 0 c33 0 40 3 40 20 0 18 7 20 60 20 53 0 60
-2 60 -20z"/>
<path d="M640 380 c0 -13 7 -20 20 -20 13 0 20 7 20 20 0 13 -7 20 -20 20 -13
0 -20 -7 -20 -20z"/>
<path d="M600 300 c0 -13 7 -20 20 -20 13 0 20 7 20 20 0 13 -7 20 -20 20 -13
0 -20 -7 -20 -20z"/>
<path d="M760 300 c0 -13 7 -20 20 -20 13 0 20 7 20 20 0 13 -7 20 -20 20 -13
0 -20 -7 -20 -20z"/>
<path d="M680 260 c0 -13 7 -20 20 -20 13 0 20 -7 20 -20 0 -13 7 -20 20 -20
13 0 20 7 20 20 0 13 -7 20 -20 20 -13 0 -20 7 -20 20 0 13 -7 20 -20 20 -13
0 -20 -7 -20 -20z"/>
<path d="M1200 380 c0 -13 7 -20 20 -20 13 0 20 7 20 20 0 13 -7 20 -20 20
-13 0 -20 -7 -20 -20z"/>
<path d="M1160 300 c0 -13 7 -20 20 -20 13 0 20 7 20 20 0 13 -7 20 -20 20
-13 0 -20 -7 -20 -20z"/>
<path d="M1320 300 c0 -13 7 -20 20 -20 13 0 20 7 20 20 0 13 -7 20 -20 20
-13 0 -20 -7 -20 -20z"/>
<path d="M1240 260 c0 -13 7 -20 20 -20 13 0 20 -7 20 -20 0 -13 7 -20 20 -20
13 0 20 7 20 20 0 13 -7 20 -20 20 -13 0 -20 7 -20 20 0 13 -7 20 -20 20 -13
0 -20 -7 -20 -20z"/>
<path d="M1760 380 c0 -13 7 -20 20 -20 13 0 20 7 20 20 0 13 -7 20 -20 20
-13 0 -20 -7 -20 -20z"/>
<path d="M1720 300 c0 -13 7 -20 20 -20 13 0 20 7 20 20 0 13 -7 20 -20 20
-13 0 -20 -7 -20 -20z"/>
<path d="M1880 300 c0 -13 7 -20 20 -20 13 0 20 7 20 20 0 13 -7 20 -20 20
-13 0 -20 -7 -20 -20z"/>
<path d="M1800 260 c0 -13 7 -20 20 -20 13 0 20 -7 20 -20 0 -13 7 -20 20 -20
13 0 20 7 20 20 0 13 -7 20 -20 20 -13 0 -20 7 -20 20 0 13 -7 20 -20 20 -13
0 -20 -7 -20 -20z"/>
</g>
</svg>
